<svg xmlns="http://www.w3.org/2000/svg" version="1.1" id="Layer_1" x="0" y="0" width="512" height="512" viewBox="0 0 128 128" style="enable-background:new 0 0 128 128" xml:space="preserve"><circle style="fill:#4ab8a1" cx="64" cy="64" r="64"/><path style="fill:#3f6073" d="M64 98c-18.748 0-34-15.252-34-34s15.252-34 34-34 34 15.252 34 34-15.252 34-34 34z"/><circle style="fill:#2d4452" cx="64" cy="64" r="30"/><path style="fill:#2d4452" d="M89 111a2 2 0 0 1-2-2c0-4.963 4.037-9 9-9h1c1.654 0 3-1.346 3-3s-1.346-3-3-3H64a2 2 0 0 1 0-4h33c3.859 0 7 3.141 7 7s-3.141 7-7 7h-1c-2.757 0-5 2.243-5 5a2 2 0 0 1-2 2z"/><circle style="fill:#233540" cx="64" cy="64" r="25"/><path style="fill:#f5f5f5" d="M64 19c-24.854 0-45 20.146-45 45s20.146 45 45 45 45-20.146 45-45-20.146-45-45-45zm13.436 17.423c3.904-3.905 10.236-3.905 14.143 0s3.904 10.237 0 14.144c-3.905 3.904-10.237 3.904-14.143 0-3.907-3.907-3.907-10.239 0-14.144zM25 64c0-5.521 4.479-10 10-10s10 4.479 10 10-4.479 10-10 10-10-4.479-10-10zm25.564 27.577c-3.904 3.905-10.236 3.905-14.143 0s-3.904-10.237 0-14.142c3.905-3.906 10.237-3.906 14.143 0 3.907 3.905 3.907 10.237 0 14.142zm0-41.013c-3.904 3.904-10.236 3.904-14.143 0-3.904-3.904-3.904-10.236 0-14.143 3.905-3.906 10.237-3.904 14.143 0 3.907 3.907 3.907 10.239 0 14.143zM64 103c-5.521 0-10-4.479-10-10s4.479-10 10-10 10 4.479 10 10-4.479 10-10 10zm0-58c-5.521 0-10-4.479-10-10s4.479-10 10-10 10 4.479 10 10-4.479 10-10 10zm27.577 46.577c-3.905 3.905-10.237 3.905-14.144 0-3.904-3.905-3.904-10.237 0-14.142 3.905-3.906 10.237-3.906 14.144 0 3.905 3.905 3.905 10.237 0 14.142zM93 74c-5.521 0-10-4.479-10-10s4.479-10 10-10 10 4.479 10 10-4.479 10-10 10z"/></svg>